<svg width="72" height="72" viewBox="0 0 72 72" fill="none" xmlns="http://www.w3.org/2000/svg">
<path d="M63 57V52.0622C63 49.6088 61.5063 47.4025 59.2283 46.4913L53.1259 44.0504C50.2286 42.8914 46.9266 44.1469 45.531 46.938L45 48C45 48 37.5 46.5 31.5 40.5C25.5 34.5 24 27 24 27L25.0621 26.469C27.8531 25.0734 29.1086 21.7714 27.9496 18.8741L25.5087 12.7717C24.5975 10.4937 22.3912 9 19.9378 9H15C11.6863 9 9 11.6863 9 15C9 41.5097 30.4903 63 57 63C60.3137 63 63 60.3137 63 57Z" stroke="black" stroke-width="4.5" stroke-linejoin="round"/>
</svg>
