<svg width="72" height="72" viewBox="0 0 72 72" fill="none" xmlns="http://www.w3.org/2000/svg">
<path d="M31.409 58.409C30.5303 59.2877 30.5303 60.7123 31.409 61.591C32.2877 62.4697 33.7123 62.4697 34.591 61.591L31.409 58.409ZM61.591 34.591C62.4697 33.7123 62.4697 32.2877 61.591 31.409C60.7123 30.5303 59.2877 30.5303 58.409 31.409L61.591 34.591ZM33.75 51C33.75 58.0416 28.0416 63.75 21 63.75V68.25C30.5269 68.25 38.25 60.5269 38.25 51H33.75ZM21 63.75C13.9584 63.75 8.25 58.0416 8.25 51H3.75C3.75 60.5269 11.4731 68.25 21 68.25V63.75ZM8.25 51C8.25 43.9584 13.9584 38.25 21 38.25V33.75C11.4731 33.75 3.75 41.4731 3.75 51H8.25ZM21 38.25C28.0416 38.25 33.75 43.9584 33.75 51H38.25C38.25 41.4731 30.5269 33.75 21 33.75V38.25ZM63.75 21C63.75 28.0416 58.0416 33.75 51 33.75V38.25C60.5269 38.25 68.25 30.5269 68.25 21H63.75ZM51 33.75C43.9584 33.75 38.25 28.0416 38.25 21H33.75C33.75 30.5269 41.4731 38.25 51 38.25V33.75ZM38.25 21C38.25 13.9584 43.9584 8.25 51 8.25V3.75C41.4731 3.75 33.75 11.4731 33.75 21H38.25ZM51 8.25C58.0416 8.25 63.75 13.9584 63.75 21H68.25C68.25 11.4731 60.5269 3.75 51 3.75V8.25ZM34.591 61.591L61.591 34.591L58.409 31.409L31.409 58.409L34.591 61.591Z" fill="black"/>
</svg>
