<svg width="174" height="44" viewBox="0 0 174 44" fill="none" xmlns="http://www.w3.org/2000/svg">
<path d="M16.5008 0.125L26.8192 26.1206H21.1241L18.8965 19.9317H8.40999L6.25595 26.1206H0.886597L11.1104 0.125H16.5008ZM10.0597 15.3189H17.2784L13.6007 5.32623L10.0597 15.3189Z" fill="#333333"/>
<path d="M41.4677 0.125C45.1523 0.125 47.9053 1.1022 49.7266 3.0566C51.5479 5.011 52.5986 8.02666 52.8788 12.1036C52.8788 12.4678 52.8788 12.8181 52.8788 13.1543C52.8788 13.4906 52.8788 13.8653 52.8788 14.2786C52.8389 16.0624 52.5453 17.8314 52.0067 19.5324C51.482 21.2112 50.4995 22.7104 49.1697 23.8615C48.1643 24.7787 46.9362 25.4163 45.6076 25.7108C44.294 25.9812 42.9559 26.115 41.6148 26.1101H30.3717V0.125H41.4677ZM41.3626 4.65375H35.4574V21.6234H41.3626C41.4109 21.635 41.4613 21.635 41.5097 21.6234H41.6568C42.3881 21.6261 43.1175 21.5486 43.8319 21.3922C44.5745 21.2136 45.2341 20.7874 45.7022 20.1839C46.2404 19.5145 46.6275 18.7367 46.837 17.9037C47.0498 17.0591 47.1905 16.1979 47.2573 15.3294C47.2573 14.9651 47.2573 14.6149 47.2573 14.2786V12.0195C47.2591 11.6264 47.238 11.2334 47.1943 10.8427C47.1489 9.99816 47.0186 9.16034 46.8055 8.34189C46.6001 7.53901 46.2117 6.79456 45.6707 6.16683C45.2008 5.56097 44.5429 5.1285 43.8003 4.93745C43.0877 4.7686 42.3577 4.68396 41.6253 4.68527H41.3206L41.3626 4.65375Z" fill="#333333"/>
<path d="M65.7182 0.125L71.8861 20.0893L78.054 0.125H85.5039V26.1206H80.5233L80.9226 5.86211L74.7126 26.1206H69.3223L62.9127 5.66247L63.417 26.1206H58.2263V0.125H65.7182Z" fill="#333333"/>
<path d="M92.3856 26.1206V0.125H97.7234V26.1206H92.3856Z" fill="#333333"/>
<path d="M117.142 0.125C117.387 0.125 117.629 0.125 117.867 0.125C118.098 0.125 118.34 0.125 118.592 0.125C119.511 0.174094 120.422 0.33283 121.303 0.597838C122.203 0.872996 123.012 1.38466 123.646 2.0794C124.254 2.70873 124.72 3.4612 125.012 4.28598C125.315 5.12543 125.502 6.00204 125.569 6.89185C125.569 7.05997 125.569 7.22809 125.569 7.39621C125.569 7.56433 125.569 7.73246 125.569 7.90058C125.633 9.5417 125.228 11.1671 124.403 12.5869C123.989 13.2526 123.446 13.8283 122.805 14.2795C122.164 14.7308 121.439 15.0486 120.673 15.2138L126.715 26.0366H120.977L115.692 15.9073H109.692V26.1206H104.596V0.125H117.142ZM115.923 4.75882H109.682V11.3155H115.923C115.968 11.3266 116.015 11.3266 116.06 11.3155H116.197C117.205 11.3284 118.207 11.1502 119.149 10.7901C120.039 10.4399 120.473 9.51523 120.452 8.01616C120.431 6.51708 119.965 5.58892 119.055 5.23166C118.037 4.9024 116.972 4.74266 115.902 4.75882H115.923Z" fill="#333333"/>
<path d="M144.062 0.125L154.381 26.1206H148.717L146.49 19.9317H135.982L133.828 26.1206H128.469L138.693 0.125H144.062ZM137.653 15.3189H144.871L141.194 5.32623L137.653 15.3189Z" fill="#333333"/>
<path d="M163.27 25.7424C161.812 25.4177 160.507 24.6061 159.572 23.4412C158.625 22.4195 157.984 21.1526 157.722 19.7846C157.472 18.3977 157.349 16.9909 157.354 15.5816V0.125H162.451V14.3837C162.35 16.26 162.603 18.1384 163.197 19.9212C163.715 21.2031 165.312 21.8441 167.988 21.8441H173.988V26.1522H167.547C166.112 26.1486 164.68 26.0114 163.27 25.7424Z" fill="#333333"/>
<path d="M173.987 29.5674H0.907104V31.8895H173.987V29.5674Z" fill="#333333"/>
<path d="M19.9688 42.3657C19.6722 42.8353 19.2586 43.2197 18.7686 43.4813C18.2786 43.7428 17.7291 43.8726 17.1738 43.8577C16.0591 43.8577 14.9901 43.4149 14.2019 42.6267C13.4136 41.8385 12.9708 40.7694 12.9708 39.6547C12.9708 38.54 13.4136 37.471 14.2019 36.6828C14.9901 35.8945 16.0591 35.4517 17.1738 35.4517C17.6861 35.4299 18.1959 35.5333 18.6592 35.753C19.1224 35.9727 19.5251 36.3021 19.8322 36.7126L19.2018 37.2065C18.9799 36.8794 18.6805 36.6122 18.3304 36.4289C17.9802 36.2456 17.5901 36.1517 17.1949 36.1557C16.342 36.2605 15.557 36.6736 14.9877 37.3171C14.4183 37.9607 14.1041 38.7902 14.1041 39.6495C14.1041 40.5087 14.4183 41.3383 14.9877 41.9818C15.557 42.6254 16.342 43.0385 17.1949 43.1432C17.6328 43.155 18.0662 43.0516 18.4517 42.8432C18.8371 42.6348 19.161 42.3288 19.3909 41.9559L19.9688 42.3657Z" fill="#333333"/>
<path d="M26.3792 43.8576C25.5374 43.9209 24.696 43.7292 23.9646 43.3075C23.2332 42.8859 22.6458 42.2537 22.2788 41.4934C21.9119 40.7332 21.7823 39.88 21.9071 39.045C22.0319 38.2101 22.4053 37.4321 22.9785 36.8124C23.5518 36.1926 24.2984 35.7599 25.1211 35.5705C25.9438 35.3811 26.8045 35.4439 27.591 35.7506C28.3775 36.0573 29.0534 36.5938 29.5307 37.2901C30.008 37.9864 30.2646 38.8103 30.267 39.6546C30.3027 40.1893 30.229 40.7257 30.0504 41.2309C29.8718 41.7362 29.5919 42.1997 29.228 42.5931C28.8641 42.9865 28.4238 43.3016 27.9339 43.519C27.4441 43.7364 26.9151 43.8516 26.3792 43.8576ZM26.3792 36.1555C25.6738 36.0834 24.9632 36.2265 24.3408 36.5662C23.7184 36.9058 23.2135 37.426 22.8925 38.0583C22.5716 38.6905 22.4497 39.4051 22.5429 40.108C22.636 40.8109 22.9399 41.4691 23.4145 41.9959C23.8891 42.5227 24.5121 42.8933 25.2015 43.0591C25.8909 43.2249 26.6143 43.1779 27.2765 42.9245C27.9387 42.671 28.5086 42.2229 28.9111 41.6392C29.3136 41.0555 29.5299 40.3636 29.5314 39.6546C29.5705 39.2143 29.5184 38.7708 29.3783 38.3516C29.2383 37.9325 29.0134 37.5467 28.7176 37.2183C28.4218 36.89 28.0614 36.6262 27.6591 36.4433C27.2568 36.2604 26.8211 36.1625 26.3792 36.1555Z" fill="#333333"/>
<path d="M38.987 42.4708V35.6514H39.7436V43.6896H38.7979L34.4688 36.7652V43.6896H33.7333V35.6514H34.679L38.987 42.4708Z" fill="#333333"/>
<path d="M45.9218 43.6889H45.1652V36.3337H42.6644V35.6086H48.4436V36.3337H45.9218V43.6889Z" fill="#333333"/>
<path d="M50.6398 43.6889H49.8097L53.0355 35.6821H53.771L56.9233 43.6889H56.0827L55.2631 41.5874H51.4594L50.6398 43.6889ZM51.6905 40.8413H54.9794L53.3402 36.6383L51.6905 40.8413Z" fill="#333333"/>
<path d="M60.6219 43.6896H59.8654V35.6514H60.6219V43.6896Z" fill="#333333"/>
<path d="M69.6899 42.4708V35.6514H70.5095V43.6896H69.5638L65.2242 36.8072V43.6896H64.4677V35.6514H65.4133L69.6899 42.4708Z" fill="#333333"/>
<path d="M74.9962 42.9331H78.989V43.6896H74.2396V35.6514H78.9155V36.3344H74.9962V39.0978H78.6108V39.8124H74.9962V42.9331Z" fill="#333333"/>
<path d="M83.0352 43.6896H82.2787V35.6514H84.4748C85.9458 35.6514 87.0281 36.2293 87.0281 37.7529C87.0538 38.2836 86.8681 38.8028 86.5116 39.1968C86.155 39.5907 85.6569 39.8272 85.1262 39.8544L87.3223 43.6896H86.3976L84.2961 39.9489H83.0352V43.6896ZM83.0352 39.2449H84.3487C85.557 39.2449 86.2505 38.7721 86.2505 37.8159C86.2505 36.8597 85.5045 36.3344 84.3802 36.3344H83.0352V39.2449Z" fill="#333333"/>
<path d="M95.5596 42.9331H99.0376V43.6896H94.8346V35.6514H95.5911L95.5596 42.9331Z" fill="#333333"/>
<path d="M102.726 43.6896H101.97V35.6514H102.726V43.6896Z" fill="#333333"/>
<path d="M111.793 42.4708V35.6514H112.539V43.6896H111.594L107.286 36.7652V43.6896H106.529V35.6514H107.475L111.793 42.4708Z" fill="#333333"/>
<path d="M117.1 42.9331H121.093V43.6896H116.344V35.6514H120.946V36.3344H117.079V39.0978H120.694V39.8124H117.079L117.1 42.9331Z" fill="#333333"/>
<path d="M127.986 36.9333C127.821 36.679 127.593 36.4718 127.325 36.3319C127.056 36.1919 126.755 36.124 126.452 36.1347C126.248 36.1233 126.044 36.1537 125.852 36.224C125.659 36.2944 125.484 36.4033 125.335 36.5439C125.187 36.6846 125.068 36.8542 124.988 37.0422C124.907 37.2302 124.865 37.4327 124.866 37.6373C124.866 38.688 125.654 38.9192 126.484 39.2134C127.535 39.5917 128.701 39.949 128.701 41.5566C128.709 41.8733 128.651 42.1882 128.53 42.4809C128.408 42.7736 128.227 43.0375 127.997 43.2555C127.767 43.4735 127.494 43.6408 127.195 43.7463C126.897 43.8519 126.579 43.8934 126.263 43.8683C125.8 43.8736 125.342 43.7642 124.932 43.5497C124.521 43.3351 124.17 43.0222 123.91 42.6389L124.561 42.1135C124.724 42.4257 124.968 42.6882 125.268 42.8732C125.567 43.0581 125.911 43.1587 126.263 43.1643C126.477 43.1757 126.691 43.1434 126.892 43.0693C127.093 42.9952 127.277 42.8809 127.432 42.7334C127.588 42.5859 127.712 42.4083 127.796 42.2114C127.88 42.0144 127.924 41.8024 127.923 41.5881C127.923 40.4638 127.051 40.1906 126.106 39.8649C125.16 39.5392 124.109 39.0768 124.109 37.6268C124.11 37.3218 124.173 37.0202 124.296 36.7409C124.418 36.4616 124.597 36.2105 124.821 36.0034C125.045 35.7963 125.309 35.6376 125.597 35.5373C125.885 35.4369 126.19 35.3971 126.494 35.4202C126.897 35.4041 127.298 35.4843 127.664 35.6543C128.029 35.8242 128.349 36.079 128.596 36.3974L127.986 36.9333Z" fill="#333333"/>
<path d="M137.295 43.6896H136.539V35.6514H137.295V43.6896Z" fill="#333333"/>
<path d="M146.353 42.4708V35.6514H147.11V43.6896H146.164L141.824 36.8072V43.6896H141.068V35.6514H142.013L146.353 42.4708Z" fill="#333333"/>
<path d="M157.197 42.3657C156.9 42.8353 156.487 43.2197 155.997 43.4813C155.507 43.7428 154.957 43.8726 154.402 43.8577C153.287 43.8577 152.218 43.4149 151.43 42.6267C150.642 41.8385 150.199 40.7694 150.199 39.6547C150.199 38.54 150.642 37.471 151.43 36.6828C152.218 35.8945 153.287 35.4517 154.402 35.4517C154.914 35.4299 155.424 35.5333 155.887 35.753C156.35 35.9727 156.753 36.3021 157.06 36.7126L156.43 37.2065C156.208 36.8794 155.909 36.6122 155.558 36.4289C155.208 36.2456 154.818 36.1517 154.423 36.1557C153.57 36.2605 152.785 36.6736 152.216 37.3171C151.646 37.9607 151.332 38.7902 151.332 39.6495C151.332 40.5087 151.646 41.3383 152.216 41.9818C152.785 42.6254 153.57 43.0385 154.423 43.1432C154.861 43.155 155.294 43.0516 155.68 42.8432C156.065 42.6348 156.389 42.3288 156.619 41.9559L157.197 42.3657Z" fill="#333333"/>
<path d="M160.675 43.6893C160.553 43.6978 160.432 43.6693 160.326 43.6077C160.22 43.5461 160.136 43.4541 160.083 43.3437C160.031 43.2334 160.012 43.1097 160.031 42.9889C160.049 42.868 160.104 42.7556 160.187 42.6661C160.271 42.5766 160.379 42.5142 160.498 42.4871C160.617 42.46 160.742 42.4693 160.856 42.514C160.97 42.5586 161.067 42.6364 161.136 42.7374C161.205 42.8383 161.242 42.9576 161.243 43.0799C161.245 43.1572 161.233 43.2343 161.206 43.3067C161.179 43.3792 161.138 43.4456 161.085 43.5022C161.033 43.5588 160.969 43.6045 160.899 43.6366C160.829 43.6687 160.753 43.6866 160.675 43.6893Z" fill="#333333"/>
</svg>
