<svg width="110" height="70" viewBox="0 0 110 70" fill="none" xmlns="http://www.w3.org/2000/svg">
<path d="M97.0296 38.9061C89.5321 38.9061 86.8572 34.4479 86.8572 30.2723C86.8572 24.8735 90.8642 21.6494 97.5787 21.6494C104.647 21.6494 108.572 24.6506 108.572 30.0929C108.572 35.7962 104.978 38.6778 97.5896 38.8952L97.0296 38.9061ZM97.5733 25.0692C93.7077 25.0692 92.8976 27.7877 92.8976 30.1092C92.8976 33.529 94.4634 35.122 97.7908 35.122C101.118 35.122 102.684 33.4583 102.684 30.044C102.684 26.2762 101.428 25.0692 97.5244 25.0692H97.5733Z" fill="#414141"/>
<path d="M75.2616 38.2375V38.2048C67.601 37.7916 65.9754 33.665 65.97 30.2615C65.97 27.9617 66.6605 26.1132 68.0414 24.7648C69.716 23.1338 72.3583 22.3074 75.9032 22.3074H76.5556H84.4119V25.5695H76.6263C75.0985 25.5695 73.9676 25.9283 73.2663 26.6569C72.5649 27.3854 72.217 28.5109 72.255 30.0549V30.2017C72.255 31.5664 72.255 34.4099 76.8329 34.7416L84.4065 34.8394V38.2375H75.2616Z" fill="#414141"/>
<path d="M46.8962 38.0198V34.7577H55.356C55.8997 34.7577 56.8892 34.6761 57.4166 34.1379C57.5368 34.0078 57.6285 33.8541 57.6856 33.6864C57.7427 33.5188 57.7641 33.3411 57.7483 33.1647C57.7156 32.0773 57.0415 31.5662 55.6279 31.5662H51.9797C49.8811 31.5173 48.4131 31.0497 47.4943 30.1363C46.7168 29.3588 46.3525 28.315 46.3525 26.8361C46.3525 23.6066 48.2826 22.1006 52.4201 22.1006H62.8372V25.3627H53.725C53.2279 25.3033 52.7261 25.4249 52.3114 25.7052C52.0444 26.023 51.9135 26.4333 51.9471 26.847C51.9253 27.0317 51.9411 27.2188 51.9934 27.3973C52.0457 27.5757 52.1335 27.7418 52.2516 27.8854C52.6321 28.2715 53.3988 28.3041 54.2197 28.3041H56.8729C59.9448 28.3041 61.6085 29.3045 62.4675 30.1417C62.883 30.5368 63.2136 31.0126 63.4389 31.5398C63.6642 32.0671 63.7795 32.6348 63.7778 33.2082C63.813 33.824 63.7233 34.4406 63.514 35.0208C63.3047 35.601 62.9802 36.1329 62.5599 36.5845C61.6193 37.5196 60.1296 37.9981 58.1397 37.9981H55.965H46.8962V38.0198Z" fill="#414141"/>
<path d="M32.1138 38.9608C24.6164 38.9608 21.9414 34.5025 21.9414 30.327C21.9414 24.9282 25.9484 21.7041 32.6684 21.7041C39.7364 21.7041 43.6672 24.7053 43.6672 30.1476C43.6672 35.8509 40.0734 38.7325 32.6847 38.9499H32.141L32.1138 38.9608ZM32.6575 25.1239C28.7919 25.1239 27.9818 27.8424 27.9818 30.1639C27.9818 33.5837 29.5422 35.1767 32.875 35.1767C36.2078 35.1767 37.7682 33.513 37.7682 30.0987C37.7682 26.3309 36.5123 25.1239 32.6086 25.1239H32.6575Z" fill="#414141"/>
<path d="M10.5287 38.2375V38.2048C2.86813 37.7916 1.2425 33.665 1.23706 30.2615C1.23706 27.9617 1.92755 26.1132 3.30852 24.7648C4.98308 23.1338 7.61997 22.3074 11.1594 22.3074H11.8227H19.679V25.5695H11.8608C10.3602 25.5695 9.24017 25.9283 8.53881 26.6569C7.56017 27.641 7.58191 29.1524 7.59279 29.9625V30.4464C7.52211 31.7295 7.37531 34.3827 12.1108 34.7198L19.6844 34.8177V38.2157L10.5287 38.2375Z" fill="#414141"/>
<path d="M38.5288 51.6175V42.0812H35.669V51.6175H38.5288Z" fill="#414141"/>
<path d="M74.4124 51.7756V42.2393H71.5525V51.7756H74.4124Z" fill="#414141"/>
<path d="M57.3413 51.7046V42.1683H63.4469C66.8776 42.3858 67.5953 43.9081 67.5953 45.1478C67.5953 46.893 65.8609 48.1163 63.3708 48.1163H60.2011V51.7046H57.3413ZM62.8869 46.5613C63.9743 46.5613 64.6322 46.0448 64.6322 45.1478C64.6322 44.3431 63.8819 43.7342 62.8869 43.7342H60.1957V46.5613H62.8869Z" fill="#414141"/>
<path d="M43.4661 51.7704V42.2341H49.5663C52.9969 42.4516 53.7146 43.9739 53.7146 45.2136C53.7146 46.9588 51.9748 48.1821 49.4901 48.1821H46.3204V51.7596L43.4661 51.7704ZM49.0117 46.6271C50.0991 46.6271 50.7515 46.1106 50.7515 45.2136C50.7515 44.4089 50.0012 43.8 49.0117 43.8H46.3259V46.6271H49.0117Z" fill="#414141"/>
<path d="M98.2481 51.6232C96.8192 51.6812 95.4236 51.1822 94.3553 50.2314C93.9042 49.7763 93.5524 49.2325 93.3222 48.6345C93.092 48.0365 92.9884 47.3973 93.0178 46.7572C93.0178 43.6201 94.9642 41.8966 98.4928 41.8966H103.962V44.278H97.5848C96.6334 44.4139 95.8994 45.4795 95.8994 46.7572C95.8994 48.1653 96.7584 49.3125 97.8132 49.3125L101.282 49.2419V46.9257H103.957V51.6178H98.2481V51.6232Z" fill="#414141"/>
<path d="M82.0249 51.6175H79.165V42.0812H81.8617L86.3798 47.7355V42.2334H89.2396V51.7697H86.6136L82.0249 46.0936V51.6175Z" fill="#414141"/>
<path d="M23.8008 47.8715L23.8171 51.6175H20.9519V42.0812H23.8171L23.7845 45.7402L28.0579 45.8218V42.0812H30.9177V51.6175H28.0579V47.8715H23.8008Z" fill="#414141"/>
<path d="M6.52693 51.7703V49.7314H12.0073C13.4753 49.6771 13.4753 49.1062 13.4753 48.7963C13.4753 48.2526 12.9316 47.9046 11.9964 47.8666H9.6314C8.34829 47.8394 7.45664 47.5567 6.91295 47.0021C6.66406 46.731 6.47379 46.4114 6.35404 46.0634C6.2343 45.7154 6.18765 45.3464 6.21703 44.9796C6.21703 43.0332 7.42946 42.0872 9.91956 42.0872H16.21V44.1314H10.7731C10.3447 44.0915 9.91718 44.2159 9.57703 44.4794C9.50512 44.5495 9.44937 44.6345 9.41369 44.7284C9.37801 44.8223 9.36324 44.9229 9.37043 45.0231C9.37043 45.7244 10.1642 45.8712 10.8275 45.8712H13.6873C14.5453 45.859 15.377 46.1673 16.0197 46.7357C16.2891 47.0176 16.498 47.3516 16.6336 47.7171C16.7692 48.0827 16.8286 48.4722 16.8081 48.8615C16.8282 49.2362 16.7721 49.611 16.6431 49.9633C16.5142 50.3156 16.315 50.6381 16.0578 50.9112C15.3033 51.552 14.3262 51.8685 13.3394 51.792H12.0182L6.52693 51.7703Z" fill="#414141"/>
<path d="M95.7578 18.1103C88.8041 7.0082 77.5442 0.641602 64.8708 0.641602C51.7897 0.641602 39.7415 7.32898 33.5163 18.143L33.2499 18.5833H37.7734L37.8604 18.4257C43.5528 8.3783 53.1815 2.84354 65.0503 2.84354C75.7175 2.84354 86.5369 9.2482 91.3703 18.4148L91.4573 18.5779H96.0514L95.7578 18.1103Z" fill="#4D4D4D"/>
<path d="M18.8755 18.6483H14.3193L14.6347 18.1046C15.1784 17.164 15.7547 16.2506 16.369 15.3862C22.9314 6.11084 33.9791 0.543457 45.9131 0.543457C58.3799 0.543457 68.8079 6.42618 76.9034 18.0285L77.2622 18.6374H72.4125L72.3038 18.4308C68.3131 10.9007 57.6242 2.89763 45.7283 2.89763C40.2906 2.89319 34.9495 4.33427 30.252 7.07327C25.5545 9.81226 21.6696 13.7507 18.9951 18.4852L18.8755 18.6483Z" fill="#414141"/>
<path d="M74.5105 54.7553H70.3023L70.2099 54.8749C67.2952 58.6477 63.544 61.6919 59.252 63.7676C54.9601 65.8433 50.2447 66.8937 45.4775 66.8361C35.5823 66.8361 27.2476 62.7041 21.3757 54.8749L21.2833 54.7499H16.999L17.385 55.2501C20.7551 59.556 25.0692 63.0303 29.9946 65.4049C34.92 67.7794 40.3251 68.9908 45.7928 68.9456C56.9928 68.9456 67.1 64.2373 73.9179 55.6035C74.0864 55.3914 74.3311 55.0163 74.5105 54.7553Z" fill="#414141"/>
<path d="M64.6908 68.9507C59.223 68.996 53.8179 67.7846 48.8925 65.41C43.9671 63.0354 39.653 59.5612 36.283 55.2552L35.897 54.755H40.328L40.4205 54.8692C46.4011 62.3449 54.9968 66.6346 63.9296 66.6346H64.4733C69.1563 66.4962 73.7582 65.3771 77.9818 63.3495C82.2054 61.322 85.9568 58.4312 88.9937 54.8637L89.0861 54.755H93.5117L93.1257 55.2552C89.7529 59.5648 85.4344 63.0413 80.504 65.416C75.5735 67.7908 70.1631 69.0001 64.6908 68.9507Z" fill="#4D4D4D"/>
</svg>
