<svg width="252" height="40" viewBox="0 0 252 40" fill="none" xmlns="http://www.w3.org/2000/svg">
<g clip-path="url(#clip0_4042_218)">
<path fill-rule="evenodd" clip-rule="evenodd" d="M15.8972 0.75H32.6376L22.2081 18.1582H24.9468L35.4026 0.75H52.2452L41.8166 18.1582H53.4947L48.776 25.8799L37.1094 25.8746L46.1907 38.3739H29.3702L20.3022 25.8799H17.4225L26.4959 38.3739H9.87537L0.76416 25.8799L15.8972 0.75Z" fill="#1C1C1C"/>
<path fill-rule="evenodd" clip-rule="evenodd" d="M73.5994 32.505H78.7665V22.3681H88.2786V32.505H93.4458V9.00525H88.2786V18.0239H78.7665V9.00525H73.5994V32.505Z" fill="black"/>
<path fill-rule="evenodd" clip-rule="evenodd" d="M105.991 25.9232C105.991 26.9436 105.859 29.84 102.206 29.84C100.692 29.84 99.3431 29.4117 99.3431 27.667C99.3431 25.9558 100.66 25.4624 102.107 25.1663C103.555 24.9028 105.201 24.8694 105.991 24.1785V25.9232ZM99.8692 20.7226C100.034 18.8801 101.186 18.1558 102.963 18.1558C104.609 18.1558 105.991 18.4519 105.991 20.46C105.991 22.3686 103.325 22.2699 100.462 22.6973C97.5658 23.0929 94.6694 24.0146 94.6694 27.8644C94.6694 31.3538 97.2363 32.9664 100.462 32.9664C102.536 32.9664 104.708 32.4068 106.189 30.8595C106.221 31.419 106.353 31.9786 106.518 32.5055H111.257C110.829 31.8147 110.664 30.2674 110.664 28.7209V19.867C110.664 15.7863 106.584 15.0294 103.194 15.0294C99.3757 15.0294 95.459 16.3459 95.1955 20.7226H99.8692Z" fill="black"/>
<path fill-rule="evenodd" clip-rule="evenodd" d="M112.183 38.4956H116.856V30.3995H116.922C118.041 32.0773 119.983 32.9664 122.023 32.9664C126.993 32.9664 129.494 28.7209 129.494 24.1785C129.494 19.3409 127.092 15.0294 121.76 15.0294C119.654 15.0294 117.81 15.8515 116.692 17.6623H116.626V15.4903H112.183V38.4956ZM120.773 29.4443C117.745 29.4443 116.692 26.8114 116.692 24.0472C116.692 21.2821 117.679 18.5505 120.74 18.5505C123.735 18.5505 124.821 21.3482 124.821 24.0472C124.821 26.8114 123.834 29.4443 120.773 29.4443Z" fill="black"/>
<path fill-rule="evenodd" clip-rule="evenodd" d="M141.443 25.923C141.443 26.9434 141.312 29.8397 137.659 29.8397C136.145 29.8397 134.795 29.4115 134.795 27.6668C134.795 25.9556 136.112 25.4621 137.56 25.1661C139.008 24.9026 140.654 24.8691 141.443 24.1783V25.923ZM135.322 20.7224C135.487 18.8799 136.639 18.1555 138.416 18.1555C140.062 18.1555 141.443 18.4516 141.443 20.4598C141.443 22.3684 138.778 22.2697 135.914 22.697C133.018 23.0927 130.122 24.0144 130.122 27.8642C130.122 31.3536 132.689 32.9661 135.914 32.9661C137.988 32.9661 140.161 32.4066 141.641 30.8593C141.674 31.4188 141.806 31.9783 141.97 32.5053H146.709C146.282 31.8144 146.117 30.2671 146.117 28.7207V19.8668C146.117 15.7861 142.036 15.0292 138.646 15.0292C134.829 15.0292 130.912 16.3456 130.648 20.7224H135.322Z" fill="black"/>
<path fill-rule="evenodd" clip-rule="evenodd" d="M164.65 15.4903H160.207V17.761H160.141C159.022 15.7863 157.311 15.0294 155.072 15.0294C150.3 15.0294 147.766 19.044 147.766 23.4551C147.766 28.1279 149.938 32.0121 155.04 32.0121C157.081 32.0121 159.121 31.1564 160.141 29.3791H160.207V31.6164C160.24 34.0519 159.055 35.8292 156.455 35.8292C154.809 35.8292 153.394 35.2371 152.966 33.4933H148.325C148.556 37.3766 152.473 38.9565 155.829 38.9565C163.663 38.9565 164.65 34.2167 164.65 31.419V15.4903ZM156.224 28.49C153.361 28.49 152.44 25.8245 152.44 23.389C152.44 20.8548 153.591 18.5505 156.224 18.5505C159.253 18.5505 160.207 21.0196 160.207 23.7838C160.207 26.2193 158.891 28.49 156.224 28.49Z" fill="black"/>
<path fill-rule="evenodd" clip-rule="evenodd" d="M165.938 25.5271H175.844V21.5116H165.938V25.5271Z" fill="black"/>
<path fill-rule="evenodd" clip-rule="evenodd" d="M177.097 32.505H193.718V28.1608H182.264V9.00525H177.097V32.505Z" fill="black"/>
<path fill-rule="evenodd" clip-rule="evenodd" d="M194.804 32.5049H199.478V9.0061H194.804V32.5049Z" fill="black"/>
<path fill-rule="evenodd" clip-rule="evenodd" d="M200.529 24.0146C200.529 29.4117 203.985 32.9664 209.317 32.9664C214.681 32.9664 218.137 29.4117 218.137 24.0146C218.137 18.584 214.681 15.0294 209.317 15.0294C203.985 15.0294 200.529 18.584 200.529 24.0146ZM205.203 24.0146C205.203 21.2821 206.157 18.5505 209.317 18.5505C212.509 18.5505 213.464 21.2821 213.464 24.0146C213.464 26.7127 212.509 29.4443 209.317 29.4443C206.157 29.4443 205.203 26.7127 205.203 24.0146Z" fill="black"/>
<path fill-rule="evenodd" clip-rule="evenodd" d="M234.563 15.49H229.726L226.007 27.1407H225.94L222.09 15.49H217.087L223.078 31.4522C223.604 32.8013 223.078 34.4799 221.465 34.6447C220.543 34.6773 219.622 34.546 218.733 34.4799V38.3306C219.688 38.4293 220.642 38.4954 221.596 38.4954C224.821 38.4954 226.435 37.3763 227.454 34.6447L234.563 15.49Z" fill="black"/>
<path fill-rule="evenodd" clip-rule="evenodd" d="M246.18 32.505H250.623V9.00525H245.949V17.5631H245.884H245.917C244.83 15.8845 242.856 15.0289 240.848 15.0289C235.846 15.0289 233.311 19.2743 233.311 23.8493C233.311 28.5556 235.812 32.9658 240.947 32.9658C243.119 32.9658 245.028 32.1763 246.114 30.3329H246.18V32.505ZM246.114 23.948C246.114 26.7457 245.192 29.4438 242.099 29.4438C239.202 29.4438 237.984 26.6461 237.984 23.9806C237.984 21.1829 239.038 18.55 242.099 18.55C245.127 18.55 246.114 21.1829 246.114 23.948Z" fill="black"/>
</g>
<defs>
<clipPath id="clip0_4042_218">
<rect width="250.25" height="38.5" fill="white" transform="translate(0.76416 0.75)"/>
</clipPath>
</defs>
</svg>
