<svg width="75" height="70" viewBox="0 0 75 70" fill="none" xmlns="http://www.w3.org/2000/svg">
<g clip-path="url(#clip0_4042_235)">
<path fill-rule="evenodd" clip-rule="evenodd" d="M7.4042 0L5.18432 3.87361H0.560059L2.87162 7.93059L0.560059 11.9761H5.18432L7.4042 15.8497L9.62407 11.9761H14.2483L11.9356 7.93059L14.2483 3.87361H9.62407L7.4042 0ZM27.4839 0L25.264 3.87361H20.6398L22.9513 7.93059L20.6398 11.9761H25.264L27.4839 15.8497L29.7027 11.9761H34.3269L32.0154 7.93059L34.3269 3.87361H29.7027L27.4839 0ZM47.5602 0L45.3438 3.87361H40.7195L43.0311 7.93059L40.7195 11.9761H45.3438L47.5602 15.8497L49.779 11.9761H54.4032L52.0917 7.93059L54.4032 3.87361H49.779L47.5602 0ZM67.7041 0L65.4843 3.87361H60.86L63.1727 7.93059L60.86 11.9761H65.4843L67.7041 15.8497L69.924 11.9761H74.5483L72.2356 7.93059L74.5483 3.87361H69.924L67.7041 0ZM17.7346 17.5573L15.5147 21.4309H10.8904L13.2032 25.4764L10.8904 29.5219H15.5147L17.7346 33.407L19.9545 29.5219H24.5787L22.2672 25.4764L24.5787 21.4309H19.9545L17.7346 17.5573ZM37.5542 17.5573L35.3343 21.4309H30.71L33.0227 25.4764L30.71 29.5219H35.3343L37.5542 33.407L39.774 29.5219H44.3983L42.0856 25.4764L44.3983 21.4309H39.774L37.5542 17.5573ZM57.3737 17.5573L55.1539 21.4309H50.5296L52.8412 25.4764L50.5296 29.5219H55.1539L57.3737 33.407L59.5936 29.5219H64.2179L61.9052 25.4764L64.2179 21.4309H59.5936L57.3737 17.5573ZM0.768637 38.759V48.019L14.5772 48.0419L0.768637 60.591V70H29.2202V61.0151H13.9939L29.2202 47.8242V38.759H0.768637ZM32.7213 38.759V70H40.6198V38.759H32.7213ZM43.7817 38.759V70H52.1535V55.3078L57.1296 70H61.8398L66.8171 55.3078V70H74.5208V38.759H64.6488L59.5386 53.1762L54.4238 38.759H43.7817Z" fill="#2F2F2F"/>
</g>
<defs>
<clipPath id="clip0_4042_235">
<rect width="74.6667" height="70" fill="white" transform="translate(0.219971)"/>
</clipPath>
</defs>
</svg>
