<svg width="28" height="24" viewBox="0 0 28 24" fill="none" xmlns="http://www.w3.org/2000/svg">
<path d="M1.92485 10.388C9.44103 7.11328 14.453 4.95441 16.9607 3.91135C24.1209 0.933203 25.6087 0.415868 26.5784 0.398603C26.7917 0.395028 27.2686 0.447886 27.5775 0.698543C27.8383 0.910194 27.9101 1.1961 27.9444 1.39677C27.9788 1.59744 28.0215 2.05456 27.9876 2.41175C27.5995 6.4886 25.9206 16.382 25.0665 20.9482C24.7051 22.8803 23.9934 23.5281 23.3045 23.5915C21.8072 23.7293 20.6703 22.602 19.2201 21.6514C16.9509 20.1639 15.669 19.238 13.4663 17.7864C10.9207 16.109 12.5709 15.187 14.0216 13.6802C14.4013 13.2859 20.9982 7.28549 21.1259 6.74116C21.1418 6.67308 21.1567 6.41932 21.0059 6.28533C20.8552 6.15133 20.6327 6.19715 20.4721 6.2336C20.2445 6.28525 16.6194 8.68131 9.59681 13.4218C8.56784 14.1283 7.63583 14.4726 6.80078 14.4546C5.8802 14.4347 4.10939 13.934 2.79297 13.5061C1.17832 12.9813 -0.104962 12.7038 0.00678326 11.8124C0.0649871 11.3481 0.704344 10.8733 1.92485 10.388Z" fill="white"/>
</svg>
