<svg width="72" height="72" viewBox="0 0 72 72" fill="none" xmlns="http://www.w3.org/2000/svg">
<path d="M50.0524 60.9196L44.3925 53.2255C43.6056 52.1558 43.1856 50.8989 43.1856 49.6132V41.8167C43.1856 40.0185 44.7942 38.5607 46.7785 38.5607H59.4008C63.0105 38.5607 64.366 34.2773 61.305 32.5435L46.5629 24.1933C44.462 23.0033 43.1856 20.9163 43.1856 18.671V13.1856C43.1856 9.21712 39.9685 6 36 6C32.0315 6 28.8144 9.21712 28.8144 13.1856V18.671C28.8144 20.9163 27.538 23.0033 25.4371 24.1933L10.695 32.5435C7.63402 34.2773 8.98953 38.5607 12.5992 38.5607H25.2215C27.2058 38.5607 28.8144 40.0185 28.8144 41.8167V49.6132C28.8144 50.8989 28.3944 52.1558 27.6075 53.2255L21.9476 60.9196C19.9039 63.6978 23.2484 67.1313 26.5438 65.6381L32.7865 62.8093C34.8094 61.8926 37.1906 61.8926 39.2135 62.8093L45.4562 65.6381C48.7516 67.1313 52.0961 63.6978 50.0524 60.9196Z" stroke="black" stroke-width="4.5"/>
</svg>
