<svg width="72" height="72" viewBox="0 0 72 72" fill="none" xmlns="http://www.w3.org/2000/svg">
<path d="M56.8796 60L65.0949 46.5414C67.0418 43.3519 65.7241 39.1404 62.3269 37.6948L38.2945 27.4686C36.826 26.8438 35.174 26.8438 33.7055 27.4686L9.67314 37.6948C6.27592 39.1404 4.95817 43.3519 6.90509 46.5414L15.1204 60" stroke="black" stroke-width="4.5" stroke-linecap="square"/>
<path d="M54 33V12C54 8.68629 51.3137 6 48 6H24C20.6863 6 18 8.68629 18 12V33" stroke="black" stroke-width="4.5"/>
<path d="M39 15H33" stroke="black" stroke-width="4.5" stroke-linecap="round" stroke-linejoin="round"/>
<path d="M9 66L13.5974 62.9351C16.2522 61.1652 19.7208 61.2046 22.3348 63.0344V63.0344C24.8996 64.8297 28.2929 64.9044 30.9342 63.2236L31.4899 62.8699C34.2314 61.1254 37.7699 61.18 40.4737 62.9825V62.9825C43.1987 64.7992 46.7749 64.8166 49.4999 63V63C52.2249 61.1833 55.7749 61.1833 58.4999 63L62.9999 66" stroke="black" stroke-width="4.5" stroke-linecap="round" stroke-linejoin="round"/>
</svg>
