<svg width="72" height="72" viewBox="0 0 72 72" fill="none" xmlns="http://www.w3.org/2000/svg">
<path d="M42 57V21M42 57H48M42 57H27M42 21C42 14.3726 36.6274 9 30 9H18C11.3726 9 6 14.3726 6 21V45C6 50.5957 9.83 55.2968 15.0115 56.6249M42 21H51.6273C53.1517 21 54.6189 21.5802 55.731 22.6228L64.1036 30.4722C65.3135 31.6065 66 33.1909 66 34.8494V51C66 54.3137 63.3137 57 60 57M60 57C60 60.3137 57.3137 63 54 63C50.6863 63 48 60.3137 48 57M60 57C60 53.6863 57.3137 51 54 51C50.6863 51 48 53.6863 48 57M27 57C27 60.3137 24.3137 63 21 63C17.6863 63 15 60.3137 15 57C15 56.874 15.0039 56.749 15.0115 56.6249M27 57C27 53.6863 24.3137 51 21 51C17.8123 51 15.2052 53.4859 15.0115 56.6249" stroke="black" stroke-width="4.5"/>
<path d="M30 24H24" stroke="black" stroke-width="4.5" stroke-linecap="round" stroke-linejoin="round"/>
<path d="M30 36H18" stroke="black" stroke-width="4.5" stroke-linecap="round" stroke-linejoin="round"/>
</svg>
