<svg width="72" height="72" viewBox="0 0 72 72" fill="none" xmlns="http://www.w3.org/2000/svg">
<path d="M60 21L36 33L12 21" stroke="black" stroke-width="4.5" stroke-linecap="round" stroke-linejoin="round"/>
<path d="M55.8737 14.0028L40.8737 7.07481C37.7709 5.64173 34.2291 5.64173 31.1263 7.07481L16.1263 14.0029C11.7928 16.0044 9 20.4703 9 25.3985V46.6015C9 51.5297 11.7928 55.9956 16.1263 57.9972L31.1263 64.9252C34.2291 66.3583 37.7709 66.3583 40.8737 64.9252L55.8737 57.9972C60.2072 55.9956 63 51.5297 63 46.6015V25.3985C63 20.4703 60.2072 16.0044 55.8737 14.0028Z" stroke="black" stroke-width="4.5" stroke-linecap="round" stroke-linejoin="round"/>
<path d="M24 12L51 27V58.5" stroke="black" stroke-width="4.5" stroke-linecap="round" stroke-linejoin="round"/>
<path d="M36 33V66" stroke="black" stroke-width="4.5" stroke-linecap="round" stroke-linejoin="round"/>
</svg>
